<?xml version="1.0" encoding="UTF-8"?> <!-- Generator: Adobe Illustrator 19.0.0, SVG Export Plug-In . SVG Version: 6.00 Build 0) --> <svg xmlns="http://www.w3.org/2000/svg" xmlns:xlink="http://www.w3.org/1999/xlink" id="Capa_1" x="0px" y="0px" viewBox="0 0 500 500" xml:space="preserve"> <g id="XMLID_44_"> <g id="XMLID_845_"> <path id="XMLID_847_" fill="#36353F" d="M337.5,173.7c-2.5,0-5,0-7.5,0c0-3.6,0-7.2,0-10.7c0-2.4-2-4.4-4.4-4.4 c-4.1,0-8.2,0-12.4,0c-2.4,0-4.4,2-4.4,4.4c0,3.6,0,7.1,0,10.7c-1.2,0-2.4,0-3.7,0c0-1.1,0-2.2,0-3.2c0-2.4-2-4.4-4.4-4.4 c-4.8,0-9.6,0-14.4,0c-2.4,0-4.4,2-4.4,4.4c0,1.1,0,2.1,0,3.2c-12.8,0-25.7-0.1-38.5-0.1c-2.2,0-3.3,0.8-4.2,2.5 c-0.3,1-0.5,1.8-0.5,2.7c-0.7,19.3-16.3,34.6-35.6,34.6c0,0-0.1,0-0.1,0c-9.5,0-18.4-4.1-25.1-10.8c-5.4-5.4-8.8-12.2-9.9-19.7 l62.1,0.5c0,0,0,0,0,0c2.1,0,4.3-0.7,4.9-2.6c0.3-1.1,0.4-2.8,0.4-3.8c0.1-21.3-17.2-39-38.5-39c0,0-0.1,0-0.1,0 c-21.2,0-38.6,16.9-38.6,38.1c0,0.2,0,0.4,0,0.5c0,0.2-0.1,0.3-0.1,0.5c0,12,4.6,23.5,13.1,32c8.5,8.5,19.8,13.5,31.8,13.5 c0.1,0,0.1,0,0.1,0c23.3,0,42.3-17.4,44.7-40.2c12.6,0,25.3,0.1,37.9,0.2c1.6,0,2.7-0.7,3.4-1.6c0.9-0.7,1.6-1.8,1.6-3.3 c0-0.9,0-1.8,0-2.6c1.9,0,3.7,0,5.6,0c0,1.1,0,2.2,0,3.2c0,2.4,2,4.4,4.4,4.4c4.2,0,8.3,0,12.5,0c2.4,0,4.4-2,4.4-4.4 c0-3.6,0-7.1,0-10.7c1.2,0,2.4,0,3.5,0c0,3.6,0,7.2,0,10.7c0,2.4,2,4.4,4.4,4.4c2.5,0,5,0,7.5,0c0,2,0,4.1,0,6.1 c-21.3-0.1-42.6-0.1-63.8-0.2c-5.7,0-5.7,8.8,0,8.8c22.7,0.1,45.5,0.1,68.2,0.2c2.4,0,4.4-2,4.4-4.4c0-5,0-9.9,0-14.9 C341.9,175.7,339.9,173.7,337.5,173.7z M196.7,147.4C196.8,147.4,196.8,147.4,196.7,147.4c15.1,0,27.4,11.3,29,25.9l-58.1,0 C169.1,158.5,181.6,147.4,196.7,147.4z"></path> <path id="XMLID_761_" fill="#36353F" d="M257.9,188.2c-2.5,0-4.5,2-4.5,4.5c0,2.5,2,4.5,4.4,4.5c2.6,0,4.6-2,4.6-4.4 C262.4,190.2,260.4,188.2,257.9,188.2z"></path> </g> <g id="XMLID_827_"> <path id="XMLID_842_" fill="#308FA5" d="M86,256.7c14.8,0,25.4,11,25.4,25.8c0,1-0.1,2.8-0.3,3.8c-0.1,1.4-1.3,2.4-2.5,2.4 l-40.5-0.1c0.5,9.4,8.8,18.3,18.8,18.3c5.9,0,10.7-2.2,13.9-4.2c2-1.1,2.8-1.8,3.9-0.3c0.8,1.1,1.5,2.1,2.4,3.2 c1,1.3,1.5,2.1-0.6,3.7c-3.4,2.7-11,6.4-20.7,6.4c-17-0.1-27.5-13.4-27.5-29.6C58.4,270.3,69,256.7,86,256.7z M101.7,280.8 c-0.4-8.2-7.1-15.5-15.7-15.5c-9.4,0-16.7,6.7-17.8,15.4L101.7,280.8z"></path> <path id="XMLID_840_" fill="#308FA5" d="M123.2,306.6c0.6-0.8,1.6-2.8,2-3.5c0.7-1.1,2.3-1.4,3.8-0.4c0,0,6,4.9,13.2,5 c5.8,0,9.1-2.9,9.2-6.7c0-4.9-4.2-7.2-12.3-11.3c-7.4-3.7-16-8.6-16-18.2c0-5.9,4.8-14.6,17.9-14.6c7.3,0,12.9,2.6,15.6,4.4 c1.3,0.8,1.7,2.8,0.8,4.4l-1.1,2.2c-0.8,1.5-2.8,2-4.1,1.3c0,0-6-3.4-11.2-3.4c-6.3,0-8,3.2-8,5.6c0,4.6,4.6,6.8,10.4,9.6 c9.7,4.7,18.4,9.1,18.3,19.2c0,8.2-7.9,15.9-19.4,15.8c-9.4,0-15.2-4-18.3-6.4C123.2,309,122.8,307.6,123.2,306.6z"></path> <path id="XMLID_836_" fill="#308FA5" d="M200.3,257.1c14.8,0,25.4,11,25.4,25.8c0,1-0.1,2.8-0.3,3.8c-0.1,1.4-1.3,2.4-2.5,2.4 l-40.5-0.1c0.5,9.4,8.8,18.3,18.8,18.3c5.9,0,10.7-2.2,13.9-4.2c2-1.1,2.8-1.8,3.9-0.3c0.8,1.1,1.5,2.1,2.4,3.2 c1,1.3,1.5,2.1-0.6,3.7c-3.4,2.7-11,6.4-20.7,6.4c-17-0.1-27.5-13.4-27.5-29.6C172.7,270.6,183.3,257,200.3,257.1z M215.9,281.2 c-0.4-8.2-7.1-15.5-15.7-15.5c-9.4,0-16.7,6.7-17.8,15.4L215.9,281.2z"></path> <path id="XMLID_834_" fill="#308FA5" d="M241,261.3c0-1.4,1.3-2.7,2.7-2.7l2.7,0c1.3,0,2,0.6,2.2,1.7l1.3,4.4c0,0,8-7.4,19.7-7.4 c16.3,0.1,21.7,10.8,21.7,25.4l-0.1,29.7c0,1.4-1.3,2.7-2.7,2.7l-4.5,0c-1.4,0-2.7-1.3-2.7-2.7l0.1-29.7 c0-10.7-4.7-15.9-12.6-15.9c-10.5,0-18.2,8-18.2,8l-0.1,37.5c0,1.4-1.3,2.7-2.7,2.7l-4.4,0c-1.4,0-2.7-1.3-2.7-2.7L241,261.3z"></path> <path id="XMLID_832_" fill="#308FA5" d="M335.3,257.5c8.4,0,15,3.4,20.1,9.9c1,1.3,0.7,3-0.6,3.9l-2.7,2.2c-2.1,2-2.8,0.6-4.1-0.6 c-2.8-3.2-7.4-5.9-12.9-5.9c-10.5,0-18.7,8.7-18.8,19.9c0,11.2,7.9,20.3,18.5,20.3c8.4,0,11.7-4.2,14.9-7.3 c1.7-1.7,2.7-1.4,4.2-0.3l1.5,1.1c1.4,1,1.8,2.5,1,3.9c-4.2,6.7-12,11.8-21.5,11.7c-15.6,0-28.8-12.6-28.7-29.5 C306.3,270.5,320,257.5,335.3,257.5z"></path> <path id="XMLID_588_" fill="#308FA5" d="M372.5,261.7c0-1.4,1.3-2.7,2.7-2.7l4.4,0c1.4,0,2.7,1.3,2.7,2.7l-0.2,50.9 c0,1.4-1.3,2.7-2.7,2.7l-4.4,0c-1.4,0-2.7-1.3-2.7-2.7L372.5,261.7z"></path> <path id="XMLID_828_" fill="#308FA5" d="M420.6,279.7c6,0,11.9,1.9,11.9,1.9c0.2-10.4-1.1-15.2-9.1-15.2c-7.7,0-14.3,2.1-16.9,3 c-1.4,0.6-2.2-0.1-2.7-1.4l-1.1-3.5c-0.6-1.7,0.3-2.5,1.6-3.1c0.8-0.4,9-3.6,19.5-3.6c14.3,0,17.8,7.4,17.8,23.8l-0.1,31.2 c0,1.4-1.3,2.7-2.7,2.7l-2.7,0c-1.5,0-2-0.8-2.4-2.1l-1.1-3.8c-3,2.9-8.7,7.3-17.5,7.3c-9.8,0-17.3-7.2-17.2-18.5 C398,287.7,406.1,279.7,420.6,279.7z M416.8,308.4c7,0,13.1-4.3,15.5-7.8l0-11.1c-1.7-1-5.6-2.3-11.8-2.3 c-7.9,0-13.5,3.9-13.5,11.2C407,304,410.8,308.4,416.8,308.4z"></path> </g> <g id="XMLID_132_"> <path id="XMLID_133_" fill="#959595" stroke="#959595" stroke-miterlimit="10" d="M147.2,340.9c0-0.3,0.3-0.6,0.6-0.6h1.2 c0.3,0,0.6,0.3,0.6,0.6v20.5c0,0.3-0.3,0.6-0.6,0.6h-1.2c-0.3,0-0.6-0.3-0.6-0.6V340.9z"></path> <path id="XMLID_137_" fill="#959595" stroke="#959595" stroke-miterlimit="10" d="M159,340.6c0-0.3,0.3-0.6,0.6-0.6h0.8l14,17.4 c0,0,0,0,0.1,0v-16.5c0-0.3,0.2-0.6,0.6-0.6h1.1c0.3,0,0.6,0.3,0.6,0.6v20.8c0,0.3-0.3,0.6-0.6,0.6h-0.6l-14.2-17.7h0v16.8 c0,0.3-0.2,0.6-0.6,0.6h-1.1c-0.3,0-0.6-0.3-0.6-0.6V340.6z"></path> <path id="XMLID_189_" fill="#959595" stroke="#959595" stroke-miterlimit="10" d="M188.5,340.5c0.1-0.2,0.3-0.4,0.6-0.4h0.5 c0.2,0,0.5,0.2,0.5,0.3l6.1,17c0.1,0,0.1,0,0.2,0l6-17c0.1-0.2,0.3-0.3,0.5-0.3h0.5c0.2,0,0.5,0.2,0.6,0.4l4,20.8 c0.1,0.4-0.1,0.7-0.6,0.7h-1.2c-0.2,0-0.5-0.2-0.6-0.4l-2.8-15.9c0,0-0.1,0-0.1,0l-5.7,16.3c-0.1,0.2-0.3,0.3-0.5,0.3H196 c-0.2,0-0.5-0.2-0.5-0.3l-5.8-16.3c0,0-0.1,0-0.1,0l-2.7,15.9c0,0.2-0.3,0.4-0.6,0.4h-1.2c-0.5,0-0.6-0.3-0.6-0.7L188.5,340.5z"></path> <path id="XMLID_191_" fill="#959595" stroke="#959595" stroke-miterlimit="10" d="M225.4,340.1c6.2,0,11.1,5,11.1,11.2 c0,6.2-4.9,11.1-11.1,11.1c-6.2,0-11.1-4.9-11.1-11.1C214.3,345,219.2,340.1,225.4,340.1z M225.4,360.2c4.9,0,9-4,9-8.9 c0-4.9-4.1-9-9-9c-4.9,0-8.9,4.1-8.9,9C216.4,356.1,220.4,360.2,225.4,360.2z"></path> <path id="XMLID_194_" fill="#959595" stroke="#959595" stroke-miterlimit="10" d="M244.3,340.9c0-0.3,0.2-0.6,0.6-0.6h6.8 c3.8,0,6.3,2.4,6.3,5.7c0,2.4-1.6,4.1-3,4.9c1.6,0.7,3.7,2.2,3.7,5c0,3.5-2.8,6-6.7,6h-7.1c-0.3,0-0.6-0.3-0.6-0.6V340.9z M252.2,359.9c2.3,0,3.9-1.7,3.9-3.9c0-2.2-2-3.8-4.4-3.8h-5.1v7.7H252.2z M251.7,350.1c2.4,0,3.7-1.7,3.7-3.9 c0-2.2-1.3-3.7-3.7-3.7h-5v7.6H251.7z"></path> <path id="XMLID_198_" fill="#959595" stroke="#959595" stroke-miterlimit="10" d="M266.8,340.9c0-0.3,0.3-0.6,0.6-0.6h1.2 c0.3,0,0.6,0.3,0.6,0.6v20.5c0,0.3-0.3,0.6-0.6,0.6h-1.2c-0.3,0-0.6-0.3-0.6-0.6V340.9z"></path> <path id="XMLID_228_" fill="#959595" stroke="#959595" stroke-miterlimit="10" d="M278.6,340.9c0-0.3,0.2-0.6,0.6-0.6h1.2 c0.3,0,0.6,0.3,0.6,0.6v19h8.9c0.3,0,0.6,0.3,0.6,0.6v0.9c0,0.3-0.2,0.6-0.6,0.6h-10.7c-0.3,0-0.6-0.3-0.6-0.6V340.9z"></path> <path id="XMLID_230_" fill="#959595" stroke="#959595" stroke-miterlimit="10" d="M296.9,340.9c0-0.3,0.3-0.6,0.6-0.6h1.2 c0.3,0,0.6,0.3,0.6,0.6v20.5c0,0.3-0.3,0.6-0.6,0.6h-1.2c-0.3,0-0.6-0.3-0.6-0.6V340.9z"></path> <path id="XMLID_232_" fill="#959595" stroke="#959595" stroke-miterlimit="10" d="M305.7,361.2l9.4-20.8c0.1-0.2,0.2-0.3,0.5-0.3 h0.3c0.3,0,0.4,0.2,0.5,0.3l9.3,20.8c0.2,0.4-0.1,0.8-0.5,0.8H324c-0.3,0-0.5-0.2-0.5-0.3l-2.3-5.1h-11l-2.3,5.1 c-0.1,0.2-0.2,0.3-0.5,0.3h-1.2C305.8,362,305.5,361.6,305.7,361.2z M320.4,354.7c-1.5-3.4-3-6.8-4.5-10.1h-0.2l-4.5,10.1H320.4z"></path> <path id="XMLID_235_" fill="#959595" stroke="#959595" stroke-miterlimit="10" d="M332.3,340.9c0-0.3,0.2-0.6,0.6-0.6h8 c3.7,0,6.7,2.9,6.7,6.6c0,2.8-1.9,5.2-4.6,6.3l4.2,7.9c0.2,0.4,0,0.9-0.5,0.9h-1.6c-0.3,0-0.4-0.2-0.5-0.3l-4.1-8.2h-5.9v7.9 c0,0.3-0.3,0.6-0.6,0.6h-1.2c-0.3,0-0.6-0.3-0.6-0.6V340.9z M340.7,351.5c2.4,0,4.5-2,4.5-4.5c0-2.4-2.1-4.4-4.5-4.4h-6v8.9H340.7 z"></path> <path id="XMLID_238_" fill="#959595" stroke="#959595" stroke-miterlimit="10" d="M355.8,340.9c0-0.3,0.3-0.6,0.6-0.6h1.2 c0.3,0,0.6,0.3,0.6,0.6v20.5c0,0.3-0.3,0.6-0.6,0.6h-1.2c-0.3,0-0.6-0.3-0.6-0.6V340.9z"></path> <path id="XMLID_240_" fill="#959595" stroke="#959595" stroke-miterlimit="10" d="M364.7,361.2l9.4-20.8c0.1-0.2,0.2-0.3,0.5-0.3 h0.3c0.3,0,0.4,0.2,0.5,0.3l9.3,20.8c0.2,0.4-0.1,0.8-0.5,0.8H383c-0.3,0-0.5-0.2-0.5-0.3l-2.3-5.1h-11l-2.3,5.1 c-0.1,0.2-0.2,0.3-0.5,0.3h-1.2C364.7,362,364.5,361.6,364.7,361.2z M379.4,354.7c-1.5-3.4-3-6.8-4.5-10.1h-0.2l-4.5,10.1H379.4z"></path> </g> </g> </svg> 