<svg version="1.1" class="second-img" xmlns="http://www.w3.org/2000/svg" xmlns:xlink="http://www.w3.org/1999/xlink" x="0px" y="0px" viewBox="0 0 89.4 77" style="enable-background:new 0 0 89.4 77;" xml:space="preserve">
                                                        <g id="XMLID_470_">
                                                        	<path id="XMLID_498_" fill="#2f9bb3" class="st0" d="M0.8,71.9c-1.4-1.4-1.1-4.1,1.6-6.6c2.7-2.5,17-14.5,17-34.5c-1.1,0.3-2.2,0.3-3.3,0.3
        	                                                	c-8.5,0-15.6-7.1-15.6-15.6C0.5,6.8,7.6,0,16.1,0c8.8,0,18,4.9,18,24.6c0,22.7-14.2,42.4-23,50.6c-2.7,2.5-4.9,2.2-6.6,0.5
        	                                                	L0.8,71.9z"></path>
                                                        	<path id="XMLID_551_" fill="#2f9bb3" class="st0" d="M56,71.9c-1.4-1.4-1.1-4.1,1.6-6.6c2.7-2.5,17-14.5,17-34.5c-1.1,0.3-2.2,0.3-3.3,0.3
                                                    		c-8.5,0-15.6-7.1-15.6-15.6C55.8,6.8,62.9,0,71.3,0c8.8,0,18,4.9,18,24.6c0,22.7-14.2,42.4-23,50.6c-2.7,2.5-4.9,2.2-6.6,0.5
                                                    		L56,71.9z"></path>
                                                    </g>
                                                    </svg>